<svg fill="none" height="71" viewBox="0 0 291 71" width="291" xmlns="http://www.w3.org/2000/svg"><g fill="#000"><path d="m14.4756 59.2906h-5.94885c1.98295 2.8753 4.26335 6.643 4.26335 10.1131h-12.7901v-69.4037h14.079v9.71652c0 11.79868-2.9744 16.45858-5.4531 20.32538h5.9489c2.1812-5.0566 6.4446-11.6995 16.6569-11.6995 12.0961 0 20.4245 10.6089 20.4245 26.2743s-8.3284 26.3734-20.4245 26.3734c-10.5097 0-14.2774-6.7421-16.7561-11.6995zm22.4075-14.6739c0-11.6003-5.0565-15.6654-11.6003-15.6654-7.0395 0-11.7986 5.1557-11.7986 15.6654s4.8582 15.6654 11.7986 15.6654c6.5438 0 11.6003-4.0651 11.6003-15.6654z"/><path d="m58.8945 44.5189c0-15.5663 10.708-26.1751 25.0845-26.1751 16.657 0 25.382 13.0875 23.994 29.6453h-34.9994c.3966 8.725 5.0565 12.2943 11.1046 12.2943 6.3455 0 9.4191-3.9659 11.5012-8.6259l12.5916 4.8583c-2.776 6.3455-9.0223 14.4757-24.0928 14.4757-15.2688 0-25.1837-10.2123-25.1837-26.4726zm35.1976-6.4447c-.5948-6.1471-4.1642-9.6173-10.1131-9.6173-5.6514 0-9.5182 3.371-10.5097 9.6173z"/><path d="m118.68 0h14.079v69.4038h-14.079z"/><path d="m143.17 44.5189c0-15.5663 10.708-26.1751 25.084-26.1751 16.657 0 25.382 13.0875 23.994 29.6453h-34.999c.397 8.725 5.057 12.2943 11.105 12.2943 6.345 0 9.419-3.9659 11.501-8.6259l12.592 4.8583c-2.777 6.3455-9.023 14.4757-24.093 14.4757-15.269 0-25.184-10.2123-25.184-26.4726zm35.198-6.4447c-.595-6.1471-4.165-9.6173-10.114-9.6173-5.651 0-9.518 3.371-10.509 9.6173z"/><path d="m199.685 44.5189c0-15.5663 10.708-26.1751 25.084-26.1751 16.657 0 25.382 13.0875 23.994 29.6453h-34.999c.396 8.725 5.056 12.2943 11.104 12.2943 6.346 0 9.419-3.9659 11.501-8.6259l12.592 4.8583c-2.776 6.3455-9.022 14.4757-24.093 14.4757-15.269 0-25.183-10.2123-25.183-26.4726zm35.197-6.4447c-.595-6.1471-4.164-9.6173-10.113-9.6173-5.651 0-9.518 3.371-10.51 9.6173z"/><path d="m263.338 30.5376h-9.618v-10.708h9.618v-6.8412c0-7.73354 4.362-12.9884 12.393-12.9884h15.269v11.2037h-9.221c-3.073 0-4.362 1.3881-4.362 4.3626v4.2633h11.501v10.708h-11.501v38.8662h-14.079z"/></g></svg>