<svg viewBox="0 0 139.83 119.81" xmlns="http://www.w3.org/2000/svg"><g fill="#fff" transform="translate(-3 -3)"><path d="m72.74 122.8c-19.79 0-39.59 0-59.38 0-5.73 0-10.07-4-10.34-9.33a9.76 9.76 0 0 1 10-10.62c10.14-.1 20.28 0 30.43 0q44.16 0 88.31 0c5.13 0 8.82 2.29 10.35 6.29a10 10 0 0 1 -9.52 13.68c-19.94.02-39.9-.02-59.85-.02z"/><path d="m72.89 23q-29.43 0-58.89 0c-6.57 0-11.16-4.37-11-10.28a10.29 10.29 0 0 1 9.12-9.65c.68-.07 1.35-.07 2.01-.07h117.47c6.22 0 10.83 4 11.12 9.43.28 5.99-4.23 10.57-10.72 10.57-11 .05-22 0-32.92 0q-13.08 0-26.19 0z"/><path d="m88 72.94c-14.63 0-29.27 0-43.9 0-5.8 0-10.33-4.17-10.57-9.48a10.16 10.16 0 0 1 10.21-10.59c9.39-.09 18.79 0 28.19 0q29.94 0 59.87 0c5.86 0 10.33 3.71 10.89 8.87.66 6.1-4 11.18-10.54 11.2-13.8 0-27.61 0-41.41 0z"/></g></svg>