<svg fill="none" height="34" viewBox="0 0 145 34" width="145" xmlns="http://www.w3.org/2000/svg"><g fill="#fff"><path d="m1.83792 33.9156 1.94901-9.5303h-3.78693v-3.3327h4.45834l1.6592-8.122h-6.11754v-3.33276h6.78895l1.94902-9.59784h3.36183l-1.949 9.59784h7.0571l1.949-9.59784h3.3836l-1.949 9.59784h3.8763v3.33276h-4.5477l-1.681 8.122h6.2287v3.3327h-6.9025l-1.949 9.5303h-3.3595l1.9273-9.5303h-7.03771l-1.94902 9.5303zm5.98229-12.863h7.03529l1.6809-8.122h-7.0594z"/><path d="m27.3901 17.3194c0-9.85103 7.2962-16.678043 16.1066-16.678043 8.168 0 12.8026 4.765163 14.4546 9.621943l-4.6806 1.8786c-1.5601-4.21535-4.4511-7.23939-9.8658-7.23939-5.6442 0-11.1048 4.21533-11.1048 12.37109 0 7.9725 4.497 12.5544 10.9213 12.5544 6.1948 0 9.6364-4.2154 9.9117-8.0642h-11.1048v-4.2153h15.8312v15.8075h-4.4511c0-2.4742.9178-5.0401 1.7896-6.827h-2.1567c-.8719 2.3826-3.6251 7.4685-11.1507 7.4685-8.4892.0024-14.5005-6.4147-14.5005-16.6781z"/><path d="m65.4309 1.28296h23.3568v4.21533h-18.768v10.17181h14.7758v4.1695h-14.7758v13.5166h-4.5888z"/><path d="m92.6423 28.3159c8.9477-5.4982 16.3357-10.8132 16.3357-17.2278 0-4.16956-2.615-6.32305-5.827-6.32305-3.4879 0-6.1494 2.52004-6.1494 7.05615l-4.6347-.6415c.0459-6.09391 4.1299-10.538343 10.8291-10.538343 6.654 0 10.6 4.215333 10.6 9.942643 0 3.4365-1.193 6.3689-3.349 8.9347-2.754 3.1615-7.664 6.3688-14.0419 9.9427l1.1471 1.7411c1.652-1.1454 3.4418-2.0618 6.8368-2.0618h9.775v4.2153h-21.5217z"/><path d="m119.303 17.2278c0-10.99654 5.828-16.586443 12.894-16.586443 7.021 0 12.803 5.589903 12.803 16.586443 0 10.9507-5.185 16.7697-12.803 16.7697-7.663.0024-12.894-5.819-12.894-16.7697zm20.879 0c0-7.69759-3.166-12.50857-7.985-12.50857-4.91 0-8.076 4.81098-8.076 12.50857 0 8.2474 3.075 12.6918 8.076 12.6918 4.91.0024 7.985-4.3986 7.985-12.6918z"/></g></svg>