<svg fill="none" height="83" viewBox="0 0 393 83" width="393" xmlns="http://www.w3.org/2000/svg"><g fill="#fff"><path d="m0 52.1648c0-18.5475 12.7001-30.7192 30.3647-30.7192 17.6647 0 30.3648 12.1717 30.3648 30.7192 0 18.8953-12.7001 30.8352-30.3648 30.8352-17.6646 0-30.3647-12.9832-30.3647-30.8352zm43.6421.2319c0-11.94-5.4264-17.9679-13.2774-17.9679-7.8509 0-13.2773 6.0279-13.2773 17.9679 0 11.9399 5.4264 17.5042 13.2773 17.5042 7.851 0 13.2774-5.5643 13.2774-17.5042z"/><path d="m72.7368 23.1844h14.7783c-.1155 3.8254-2.54 8.81-5.6573 13.331h7.1582c2.6555-8.2305 8.4282-15.0698 17.665-15.0698 12.7 0 19.627 8.4622 19.627 21.3296v38.3701h-16.395v-35.2402c0-7.6509-3.579-10.8967-9.236-10.8967-11.4301 0-11.5455 12.5196-11.5455 18.6634v27.4735h-16.3947z"/><path d="m147.552 65.9595v-30.2556h-12.123v-12.5196h12.123v-18.19968h16.394v18.19968h15.01v12.5196h-15.01v27.2416c0 3.4777 1.501 5.1006 5.08 5.1006h12.47v13.0991h-19.281c-9.352 0-14.663-6.1438-14.663-15.1857z"/><path d="m187.615 52.1648c0-18.3156 9.698-30.7193 23.784-30.7193 11.891 0 16.625 7.7668 19.165 13.6788h6.927c-2.886-4.5209-6.119-9.9693-6.119-23.764v-11.3603h16.395v81.1453h-14.894c0-4.0573 2.656-8.4623 4.965-11.8241h-6.928c-2.886 5.7961-7.273 13.6788-19.511 13.6788-14.086 0-23.784-12.5196-23.784-30.8352zm44.44 0c0-12.2877-5.541-18.3156-13.739-18.3156-7.62 0-13.508 4.7528-13.508 18.3156 0 13.5629 5.888 18.3156 13.508 18.3156 8.082 0 13.739-6.0279 13.739-18.3156z"/><path d="m259.89 52.0489c0-18.1997 12.469-30.6033 29.21-30.6033 19.396 0 29.556 15.3016 27.94 34.6606h-40.756c.462 10.2011 5.889 14.3743 12.931 14.3743 7.39 0 10.969-4.6369 13.393-10.0852l14.663 5.6802c-3.233 7.4189-10.506 16.9245-28.056 16.9245-17.78 0-29.325-11.9399-29.325-30.9511zm40.977-7.5349c-.693-7.1872-4.849-11.2444-11.777-11.2444-6.581 0-11.083 3.9413-12.238 11.2444z"/><path d="m354.322 57.1494-8.428 8.1146v15.8812h-16.394v-81.1452h16.394v25.6187c0 11.5922-3.117 15.8813-8.313 20.1704l4.388 4.7528 27.132-27.3575h20.089l-23.553 22.9525 27.363 35.0083h-20.666z"/></g></svg>