<svg xmlns="http://www.w3.org/2000/svg" viewBox="0 0 32 32"><path d="M8.625 13.486c0 1.396.614 3.464 2.234 3.911.057 0 .112.057.224.057.392 0 .615-1.006.615-1.286 0-.335-.895-1.062-.895-2.402 0-2.906 2.347-4.917 5.42-4.917 2.627 0 4.582 1.397 4.582 3.911 0 1.9-.838 5.475-3.464 5.475-.95 0-1.788-.67-1.788-1.563 0-1.341 1.006-2.682 1.006-4.079 0-.838-.503-1.564-1.509-1.564-1.341 0-2.124 1.396-2.124 2.458 0 .614.057 1.285.392 1.844-.559 2.124-1.62 5.308-1.62 7.487 0 .671.111 1.341.167 2.012v.112l.168-.056c1.956-2.459 1.844-2.962 2.738-6.203.447.838 1.676 1.285 2.682 1.285 4.079 0 5.923-3.688 5.923-7.04 0-3.52-3.297-5.867-6.929-5.867-3.911-.001-7.822 2.458-7.822 6.425z"/></svg>