<svg height="32" fill="#fff" viewBox="0 0 32 32" width="32" xmlns="http://www.w3.org/2000/svg"><path d="m19.371 17.952 1.997 1.997c.272-.11.587-.174.917-.174.693 0 1.321.281 1.776.736l3.704 3.704c.454.454.735 1.082.735 1.775 0 1.386-1.124 2.51-2.51 2.51-.693 0-1.321-.281-1.775-.735l-3.705-3.705c-.455-.454-.736-1.082-.736-1.776 0-.33.064-.645.179-.933l-.006.017-2.053-2.053c-1.474 1.098-3.332 1.758-5.343 1.758-.005 0-.01 0-.015 0h.001c-4.991 0-9.037-4.046-9.037-9.037s4.046-9.037 9.037-9.037h.001c4.991 0 9.037 4.046 9.037 9.037 0 2.267-.835 4.339-2.214 5.926l.009-.011zm-6.833.11c3.328 0 6.025-2.697 6.025-6.025s-2.697-6.025-6.025-6.025-6.025 2.697-6.025 6.025 2.697 6.025 6.025 6.025z"/></svg>