<svg height="32" viewBox="0 0 32 32" width="32" xmlns="http://www.w3.org/2000/svg"><path d="m12.973 24c7.17 0 11.093-5.77 11.093-10.773 0-.164-.003-.328-.013-.49.765-.54 1.411-1.19 1.93-1.935l.017-.025c-.653.288-1.41.498-2.202.591l-.038.004c.801-.468 1.407-1.197 1.706-2.068l.008-.027c-.714.419-1.544.739-2.427.912l-.05.008c-1.473-1.526-3.942-1.603-5.512-.172-.755.684-1.228 1.668-1.232 2.761v.001c0 .29.035.58.103.863-3.134-.153-6.055-1.59-8.036-3.956-1.032 1.73-.504 3.942 1.208 5.054-.65-.019-1.255-.192-1.787-.483l.021.01v.048c0 1.802 1.307 3.355 3.125 3.712-.308.085-.662.133-1.027.133-.259 0-.513-.025-.758-.071l.025.004c.512 1.541 1.975 2.598 3.642 2.63-1.321 1.011-2.996 1.62-4.814 1.62-.009 0-.018 0-.027 0h.001c-.31 0-.62-.017-.929-.053 1.69 1.068 3.747 1.702 5.953 1.702h.022-.001"/></svg>