<svg xmlns="http://www.w3.org/2000/svg" viewBox="0 0 32 32"><path d="M12.973 24c7.17 0 11.093-5.77 11.093-10.773 0-.164-.003-.328-.013-.49a7.865 7.865 0 001.93-1.935l.017-.025a7.759 7.759 0 01-2.202.591l-.038.004a3.842 3.842 0 001.706-2.068l.008-.027a7.785 7.785 0 01-2.427.912l-.05.008c-1.473-1.526-3.942-1.603-5.512-.172a3.733 3.733 0 00-1.232 2.761v.001c0 .29.035.58.103.863-3.134-.153-6.055-1.59-8.036-3.956-1.032 1.73-.504 3.942 1.208 5.054a3.947 3.947 0 01-1.787-.483l.021.01v.048c0 1.802 1.307 3.355 3.125 3.712a3.915 3.915 0 01-1.027.133 4.11 4.11 0 01-.758-.071l.025.004c.512 1.541 1.975 2.598 3.642 2.63a7.907 7.907 0 01-4.814 1.62h-.027.001c-.31 0-.62-.017-.929-.053A11.147 11.147 0 0012.953 24h.022-.001"/></svg>