<svg xmlns="http://www.w3.org/2000/svg" viewBox="0 0 32 32"><path d="M12.646 15.008l.47 2.993-.115-.001a4.5 4.5 0 104.071 2.58l.012.027 3.332.766a7.5 7.5 0 11-10.781-5.579l.043-.02-.813-2.274H7a1 1 0 010-2h2.57c.431.001.798.274.938.656l.002.007 1.064 2.972c.35-.067.707-.11 1.072-.127zm.496-6.526a3.5 3.5 0 111.985-.382l-.019.009.722 4.606c.087-.015.177-.018.269-.01l6 .597a1 1 0 11-.203 1.989h.005l-5.757-.572.338 2.157 6.392 1.468c.375.088.665.379.751.747l.001.007 1.855 8.182 2.277-.567a1 1 0 01.491 1.939l-.007.002-3.268.815a1 1 0 01-1.216-.742l-.001-.007-1.943-8.566-6.439-1.48a1.002 1.002 0 01-.763-.813l-.001-.006-1.47-9.374zM13.5 6.5a1.5 1.5 0 000-3 1.5 1.5 0 000 3zm-.5 18a2 2 0 110-4 2 2 0 110 4z"/></svg>